<?xml version="1.0" encoding="UTF-8" standalone="no"?>
<!-- Created with Inkscape (http://www.inkscape.org/) -->
<svg
   xmlns:dc="http://purl.org/dc/elements/1.1/"
   xmlns:cc="http://creativecommons.org/ns#"
   xmlns:rdf="http://www.w3.org/1999/02/22-rdf-syntax-ns#"
   xmlns:svg="http://www.w3.org/2000/svg"
   xmlns="http://www.w3.org/2000/svg"
   xmlns:sodipodi="http://sodipodi.sourceforge.net/DTD/sodipodi-0.dtd"
   xmlns:inkscape="http://www.inkscape.org/namespaces/inkscape"
   width="210mm"
   height="297mm"
   id="svg2"
   sodipodi:version="0.32"
   inkscape:version="0.46"
   sodipodi:docname="deco.svg"
   inkscape:output_extension="org.inkscape.output.svg.inkscape"
   inkscape:export-filename="D:\documents\wwwPerso\deco.png"
   inkscape:export-xdpi="40.074604"
   inkscape:export-ydpi="40.074604">
  <defs
     id="defs4">
    <marker
       inkscape:stockid="Arrow1Lstart"
       orient="auto"
       refY="0.0"
       refX="0.0"
       id="Arrow1Lstart"
       style="overflow:visible">
      <path
         id="path3160"
         d="M 0.0,0.0 L 5.0,-5.0 L -12.5,0.0 L 5.0,5.0 L 0.0,0.0 z "
         style="fill-rule:evenodd;stroke:#000000;stroke-width:1.0pt;marker-start:none"
         transform="scale(0.8) translate(12.5,0)" />
    </marker>
    <inkscape:perspective
       sodipodi:type="inkscape:persp3d"
       inkscape:vp_x="0 : 526.18109 : 1"
       inkscape:vp_y="0 : 1000 : 0"
       inkscape:vp_z="744.09448 : 526.18109 : 1"
       inkscape:persp3d-origin="372.04724 : 350.78739 : 1"
       id="perspective10" />
    <filter
       inkscape:collect="always"
       id="filter4558">
      <feGaussianBlur
         inkscape:collect="always"
         stdDeviation="1.3853666"
         id="feGaussianBlur4560" />
    </filter>
    <filter
       inkscape:collect="always"
       id="filter4598">
      <feGaussianBlur
         inkscape:collect="always"
         stdDeviation="0.52444281"
         id="feGaussianBlur4600" />
    </filter>
    <filter
       inkscape:collect="always"
       id="filter4660">
      <feGaussianBlur
         inkscape:collect="always"
         stdDeviation="1.5148319"
         id="feGaussianBlur4662" />
    </filter>
    <filter
       inkscape:collect="always"
       id="filter4668">
      <feGaussianBlur
         inkscape:collect="always"
         stdDeviation="1.4471719"
         id="feGaussianBlur4670" />
    </filter>
  </defs>
  <sodipodi:namedview
     id="base"
     pagecolor="#ffffff"
     bordercolor="#666666"
     borderopacity="1.0"
     inkscape:pageopacity="0.0"
     inkscape:pageshadow="2"
     inkscape:zoom="0.75622802"
     inkscape:cx="395.56078"
     inkscape:cy="140.19583"
     inkscape:document-units="px"
     inkscape:current-layer="layer1"
     showgrid="false"
     inkscape:window-width="695"
     inkscape:window-height="861"
     inkscape:window-x="359"
     inkscape:window-y="45"
     showguides="true"
     inkscape:guide-bbox="true">
    <sodipodi:guide
       orientation="1,0"
       position="248.72181,832.18952"
       id="guide4672" />
    <sodipodi:guide
       orientation="0,1"
       position="166.61641,515.71747"
       id="guide4674" />
    <sodipodi:guide
       orientation="1,0"
       position="620.18331,472.07984"
       id="guide4767" />
    <sodipodi:guide
       orientation="0,1"
       position="417.20221,128.26819"
       id="guide4769" />
    <sodipodi:guide
       orientation="0,1"
       position="406.62339,120.99525"
       id="guide4771" />
  </sodipodi:namedview>
  <metadata
     id="metadata7">
    <rdf:RDF>
      <cc:Work
         rdf:about="">
        <dc:format>image/svg+xml</dc:format>
        <dc:type
           rdf:resource="http://purl.org/dc/dcmitype/StillImage" />
      </cc:Work>
    </rdf:RDF>
  </metadata>
  <g
     inkscape:label="Calque 1"
     inkscape:groupmode="layer"
     id="layer1">
    <path
       style="opacity:1;fill:#5ac0c9;fill-opacity:1;fill-rule:evenodd;stroke:none;stroke-width:12;stroke-linecap:butt;stroke-linejoin:miter;stroke-miterlimit:4;stroke-dasharray:none;stroke-opacity:1;filter:url(#filter4558)"
       d="M 59.169716,274.14853 L 78.192836,272.28129 C 82.220866,361.33707 157.19217,330.45356 154.88666,466.86715 C 152.55705,604.70674 71.833957,660.37935 95.506871,777.48502 C 119.17979,894.59069 224.30656,933.5386 227.41912,1083.965 L 210.10654,1086.1066 C 209.09726,918.38878 67.662165,855.63519 62.435766,737.1883 C 57.209499,618.74439 147.68247,548.7102 143.9122,458.09662 C 140.14194,367.48305 57.064332,362.54061 59.169716,274.14853 z"
       id="path4602"
       sodipodi:nodetypes="cczzcczzc"
       transform="matrix(0.9991936,1.9005789e-2,-4.0151814e-2,0.4729665,218.02875,409.78771)" />
    <path
       style="opacity:1;fill:#3e858c;fill-opacity:1;fill-rule:evenodd;stroke:none;stroke-width:12;stroke-linecap:butt;stroke-linejoin:miter;marker:none;stroke-miterlimit:4;stroke-dasharray:none;stroke-dashoffset:0;stroke-opacity:1;visibility:visible;display:inline;overflow:visible;filter:url(#filter4558);enable-background:accumulate"
       d="M 131.875,199.53125 C 123.47127,259.06933 126.93956,299.02415 143.22768,324.07143 C 159.5158,349.11871 187.51038,358.75981 186.84375,397.96875 C 186.17702,437.18361 169.20721,453.37015 150.75,476.375 C 132.29279,499.37985 113.33771,528.64957 114,588.15625 C 114.66355,647.77611 139.70023,714.06872 160.31696,785.32143 C 180.93369,856.57414 182.89875,934.13534 183.99554,1006.7411 L 210.28125,1005.125 C 209.15229,930.3903 198.20796,849.07521 177.5625,777.72321 C 156.91704,706.37121 136.63335,644.90657 136,588 C 135.36546,530.98739 147.86095,510.52975 165.80804,488.16071 C 183.75513,465.79167 198.11657,440.95779 198.84375,398.1875 C 199.57082,355.42313 180.42081,333.1148 164.71875,308.96875 C 149.01669,284.8227 135.68824,258.33402 143.75,201.21875 L 131.875,199.53125 z"
       id="path4568"
       sodipodi:nodetypes="csssssccssssscc"
       transform="matrix(0.9991936,1.9005789e-2,-4.0151814e-2,0.4729665,193.05701,446.52876)" />
    <path
       style="opacity:0.67326732;fill:#5ac0c9;fill-opacity:1;fill-rule:evenodd;stroke:none;stroke-width:12;stroke-linecap:butt;stroke-linejoin:miter;stroke-miterlimit:4;stroke-dasharray:none;stroke-opacity:1;filter:url(#filter4558)"
       d="M 261.56345,181.20999 L 242.45184,180.87517 C 246.75479,220.40023 232.03227,217.76352 207.15625,245.125 C 181.68114,273.07263 145.18994,306.97063 145.42857,365.24107 C 145.66437,422.82156 171.91683,451.52153 188.96875,485 C 206.02067,518.47847 214.29998,560.1461 215.42857,636.72321 C 216.54506,712.48007 186.9841,747.68226 157.38839,797.59375 C 127.79268,847.50524 107.81735,904.13697 119.9778,1015.4928 L 143.11607,1016.0089 C 131.21223,907.003 145.70984,852.85144 174.84375,803.71875 C 203.97766,754.58606 237.16626,711.41455 236,632.28125 C 234.84583,553.9682 225.48961,509.16757 208.22768,475.27679 C 190.96575,441.38601 166.22604,418.97648 166,363.78125 C 165.77679,309.27598 190.69013,280.98814 216.03125,253.1875 C 247.05113,221.09924 263.05001,227.28509 261.56345,181.20999 z"
       id="path2385"
       sodipodi:nodetypes="cccssssccsssscc"
       transform="matrix(0.9991936,1.9005789e-2,-4.0151814e-2,0.4729665,193.05701,446.52876)" />
    <path
       style="fill:#000000;fill-opacity:1;fill-rule:evenodd;stroke:none;stroke-width:12;stroke-linecap:butt;stroke-linejoin:miter;stroke-miterlimit:4;stroke-dasharray:none;stroke-opacity:1;filter:url(#filter4668)"
       d="M 356.9375,104.15625 C 326.04073,221.48718 430.08019,322.17366 419.09375,434.75 C 399.37351,515.69465 305.67174,536.76171 296.59375,623.03125 C 302.17563,701.61154 356.89947,764.69798 396.96875,829.15625 C 416.77447,862.22829 431.15625,893.92661 431.15625,922.375 L 443.15625,922.375 C 443.15625,889.97638 427.45583,856.74015 407.25,823 C 369.32502,759.01606 319.9518,702.17959 313.64451,625.14531 C 328.61199,543.90556 418.16954,541.73785 438.04911,432.58929 C 457.10217,327.97865 362.05851,281.26683 368.75,106.28125 L 356.9375,104.15625 z"
       id="path4624"
       sodipodi:nodetypes="cccccccczcc"
       transform="matrix(1,0,0,0.4733482,0,490.04852)" />
    <path
       style="fill:#000000;fill-opacity:1;fill-rule:evenodd;stroke:none;stroke-width:13.69999981;stroke-linecap:butt;stroke-linejoin:miter;stroke-miterlimit:4;stroke-dasharray:none;stroke-opacity:1;filter:url(#filter4660)"
       d="M 497.46875,108.96875 C 489.57311,210.74169 549.67913,255.18057 582.71875,298.4375 C 599.23856,320.06596 609.25382,340.61801 603.875,370.15625 C 570.93153,472.67228 478.58418,529.24518 432.34375,628.4375 C 406.46219,731.02123 481.22514,823.14691 491.71875,926.84375 L 505.40625,926.46875 C 520.07747,819.63216 411.22514,736.77844 445.09375,633.5 C 486.61889,533.88014 588.05213,478.57197 617.34375,372.625 C 623.49247,338.85876 611.13568,313.09167 593.59375,290.125 C 558.50989,244.19166 503.65987,206.25498 511.125,110.03125 L 497.46875,108.96875 z"
       id="path4626"
       sodipodi:nodetypes="csccccccscc"
       transform="matrix(1,0,0,0.4733482,0,490.04852)" />
    <path
       style="opacity:0.69636966;fill:#5ac0c9;fill-opacity:1;fill-rule:evenodd;stroke:none;stroke-width:12;stroke-linecap:butt;stroke-linejoin:miter;marker:none;marker-start:none;marker-mid:none;marker-end:none;stroke-miterlimit:4;stroke-dasharray:none;stroke-dashoffset:0;stroke-opacity:1;visibility:visible;display:inline;overflow:visible;filter:url(#filter4558);enable-background:accumulate"
       d="M 521.5625,108.03125 C 520.83946,195.44564 461.83999,224.22503 441.125,258.75 C 405.36627,318.34789 409.54767,397.5116 422.5,474.71875 C 435.45233,551.9259 457.47321,627.95769 460.15625,679.875 C 462.84811,731.96304 448.86117,753.27265 433.21875,782.59375 C 417.57633,811.91485 400.85714,848.30826 401.5625,923.84375 L 415.5625,923.71875 C 414.87626,850.23046 430.22021,818.0046 445.59375,789.1875 C 460.96729,760.3704 476.96253,734.06305 474.125,679.15625 C 471.27865,624.07869 449.08085,548.51677 436.3125,472.40625 C 423.54415,396.29573 420.50287,320.39105 453.15625,265.96875 C 468.9403,239.662 534.78652,201.94063 535.5625,108.125 L 521.5625,108.03125 z"
       id="path4628"
       transform="matrix(1,0,0,0.4733482,0,490.04852)" />
    <path
       style="opacity:1;fill:#5ac0c9;fill-opacity:1;fill-rule:evenodd;stroke:none;stroke-width:12;stroke-linecap:butt;stroke-linejoin:miter;marker:none;marker-start:none;marker-mid:none;marker-end:none;stroke-miterlimit:4;stroke-dasharray:none;stroke-dashoffset:0;stroke-opacity:1;visibility:visible;display:inline;overflow:visible;filter:url(#filter4558);enable-background:accumulate"
       d="M 618.28125,113.40625 L 610.3125,114.1875 C 616.16237,173.83406 589.27343,220.02244 561.5,267.65625 C 533.77705,315.20347 505.19839,364.1687 510.28125,428.0625 C 510.28125,488.86509 523.00206,539.43708 542.74015,580.58051 C 630.35841,689.04681 558.42762,800.39664 558.39531,925.4178 L 569.04002,928.09375 C 586.30027,797.35454 653.70052,715.06047 551.28125,570.5 C 531.86014,530.01732 518.28125,487.64213 518.28125,428.0625 L 518.28125,427.90625 L 518.28125,427.75 C 513.28486,366.37149 540.63392,319.31942 568.40625,271.6875 C 596.17858,224.05558 624.40301,175.82503 618.28125,113.40625 z"
       id="path4630"
       sodipodi:nodetypes="ccsccccccccsc"
       transform="matrix(1,0,0,0.4733482,0,490.04852)" />
    <path
       style="opacity:1;fill:#3e858c;fill-opacity:1;fill-rule:evenodd;stroke:none;stroke-width:12;stroke-linecap:butt;stroke-linejoin:miter;marker:none;marker-start:none;marker-mid:none;marker-end:none;stroke-miterlimit:4;stroke-dasharray:none;stroke-dashoffset:0;stroke-opacity:1;visibility:visible;display:inline;overflow:visible;filter:url(#filter4558);enable-background:accumulate"
       d="M 564.875,116.40625 C 563.26267,170.08726 536.56939,217.12385 512.78125,259.21875 C 500.88718,280.2662 489.71863,300.02865 483.15625,319.21875 C 476.59387,338.40885 474.69815,357.64896 482.6875,375.625 C 495.90072,405.35475 516.19348,426.68874 531.625,453.875 C 547.05652,481.06126 558.45507,514.10397 554.875,568.96875 C 551.38013,622.52801 521.40043,665.91824 494.03125,718.21875 C 466.66207,770.51926 442.68505,831.90144 454.9375,919.1875 L 470.78125,916.96875 C 459.0645,833.49898 481.42949,776.81733 508.21875,725.625 C 535.00801,674.43267 567.00322,628.88764 570.84375,570.03125 C 574.5991,512.48036 562.09664,475.1526 545.53125,445.96875 C 528.96586,416.7849 509.16132,395.78483 497.3125,369.125 C 491.39232,355.8046 492.47439,341.44714 498.3125,324.375 C 504.15061,307.30286 514.81165,288.10895 526.6875,267.09375 C 550.43919,225.06336 579.08207,175.5285 580.84375,116.875 L 564.875,116.40625 z"
       id="path4632"
       transform="matrix(1,0,0,0.4733482,0,490.04852)" />
  </g>
</svg>
